<svg width="137" height="24" viewBox="0 0 137 24" fill="none" xmlns="http://www.w3.org/2000/svg">
<path d="M12.3334 2.00006L15.4234 8.26006L22.3334 9.27006L17.3334 14.1401L18.5134 21.0201L12.3334 17.7701L6.15337 21.0201L7.33337 14.1401L2.33337 9.27006L9.24337 8.26006L12.3334 2.00006Z" fill="#FFC107"/>
<path d="M40.3335 2.00006L43.4235 8.26006L50.3335 9.27006L45.3335 14.1401L46.5135 21.0201L40.3335 17.7701L34.1535 21.0201L35.3335 14.1401L30.3335 9.27006L37.2435 8.26006L40.3335 2.00006Z" fill="#FFC107"/>
<path d="M68.3335 2.00006L71.4235 8.26006L78.3335 9.27006L73.3335 14.1401L74.5135 21.0201L68.3335 17.7701L62.1535 21.0201L63.3335 14.1401L58.3335 9.27006L65.2435 8.26006L68.3335 2.00006Z" fill="#FFC107"/>
<path d="M96.3335 2.00006L99.4235 8.26006L106.333 9.27006L101.333 14.1401L102.513 21.0201L96.3335 17.7701L90.1535 21.0201L91.3335 14.1401L86.3335 9.27006L93.2435 8.26006L96.3335 2.00006Z" fill="#FFC107"/>
<path d="M124.333 2.00006L127.423 8.26006L134.333 9.27006L129.333 14.1401L130.513 21.0201L124.333 17.7701L118.153 21.0201L119.333 14.1401L114.333 9.27006L121.243 8.26006L124.333 2.00006Z" fill="#FFC107"/>
</svg>
